# 3ds Max Wavefront OBJ Exporter v0.97b - (c)2007 guruware
# File Created: 04.04.2017 18:00:00

mtllib thing.mtl

#
# object SketchUp
#

v  0.5000 0.0000 -0.5000
v  -0.5000 0.0000 0.5000
v  -0.5000 0.0000 -0.5000
v  0.5000 0.0000 0.5000
v  0.5000 1.0000 0.5000
v  0.5000 1.0000 -0.5000
v  -0.5000 1.0000 0.5000
v  -0.5000 1.0000 -0.5000
# 8 vertices

vn 0.0000 -1.0000 -0.0000
vn 1.0000 0.0000 -0.0000
vn 0.0000 0.0000 1.0000
vn -1.0000 0.0000 -0.0000
vn 0.0000 0.0000 -1.0000
vn 0.0000 1.0000 -0.0000
# 6 vertex normals

vt 0.0000 1.0000 0.0000
vt 1.0000 0.0000 0.0000
vt 1.0000 1.0000 0.0000
vt 0.0000 0.0000 0.0000
vt 1.0000 0.0000 1.0000
vt 0.0000 1.0000 1.0000
vt 0.0000 0.0000 1.0000
vt 1.0000 1.0000 1.0000
# 8 texture coords

g SketchUp
usemtl Material__25
s off
f 1/1/1 2/2/1 3/3/1 
f 2/2/1 1/1/1 4/4/1 
f 1/5/2 5/6/2 4/7/2 
f 5/6/2 1/5/2 6/8/2 
f 5/3/3 2/4/3 4/2/3 
f 2/4/3 5/3/3 7/1/3 
f 8/1/4 2/2/4 7/3/4 
f 2/2/4 8/1/4 3/4/4 
f 8/8/5 1/7/5 3/5/5 
f 1/7/5 8/8/5 6/6/5 
f 5/5/6 8/6/6 7/7/6 
f 8/6/6 5/5/6 6/8/6 
# 12 faces

